<?xml version="1.0" encoding="utf-8"?>
<!-- Generator: Adobe Illustrator 24.0.1, SVG Export Plug-In . SVG Version: 6.00 Build 0)  -->
<svg version="1.1" id="그리기_레이어" xmlns="http://www.w3.org/2000/svg" xmlns:xlink="http://www.w3.org/1999/xlink"
	 x="0px" y="0px" viewBox="0 0 3600 3600" style="enable-background:new 0 0 3600 3600;" xml:space="preserve">
<style type="text/css">
	.st0{fill:#2C2C2C;}
</style>
<path class="st0" d="M1949.1,660.9c-0.9,0.1-1.8,0.3-2.8,0.6c-4.3,1-8.7,2.6-12.4,4.8c-6.7,4.1-12.5,11-14.2,18.9
	c-1.2,5.6-1.5,11.4-2,17.2c-0.4,4.4-1,8.9-1.1,13.3c-0.2,5.4-0.3,10.9-0.5,16.3c-0.5,11.9-1.3,23.7-1.5,35.6
	c-0.2,12.9-0.6,25.7-1.4,38.5c-0.8,13.4-2.3,26.7-3.8,40c-1.4,12.4-2.9,24.8-4.3,37.2c-1.6,13.9-2.9,27.9-4.2,41.8
	c-0.7,7.1-0.8,14.4-1.3,21.5c-0.4,6.1-0.4,12.1-0.6,18.2c-0.4,12-0.9,23.9-1.4,35.9c-0.6,13-0.6,26-1.2,39c-0.5,12-1.7,24-2.5,36
	c-0.9,13.1-1.9,26.2-2.6,39.3c-0.8,12.7-1.4,25.4-2.5,38c-0.7,7.9-1.3,15.9-2,23.8c-10.8-2.8-22-4.3-33.2-5.2
	c-12.2-0.9-24.3-1.5-36.5-1.3c-12.5,0.2-24.9,0.5-37.4,1.1c-12.8,0.6-25.6,1.5-38.4,2.4c-5.7,0.4-11.3,1.2-17,1.8
	c-16.3,1.8-32.6,4.1-48.2,9c-15,4.7-30,9.5-44.5,15.6c-7.7,3.3-15,7.2-22.2,11.5c-2.7,1.6-5.4,3.2-8.1,4.8
	c-5.6-2.9-11.1-5.9-16.7-8.9c-12.1-6.4-24.3-12.8-36.5-19.1c-5.4-2.8-10.9-5.3-16.4-7.9c-8.5-4.1-17.3-7.6-26.2-10.6
	c-7.5-2.5-15.2-3.9-23-5.2c-14.9-2.4-29.8-4.8-44.8-6.2c-3.6-0.3-7.1-0.7-10.7-1c-3.1-0.3-6.3-0.2-9.5-0.3
	c-6.3-0.2-12.5-0.1-18.8,0.1c-13.2,0.3-26.4,0.5-39.6,1.4c-6.5,0.5-13.1,0.7-19.5,1.4c-6.9,0.7-13.8,1.5-20.6,2.2
	c-7,0.8-13.8,1.5-20.8,1.9c-4.1,0.3-8.2,0.6-12.2,1.1c-0.2-0.9-0.4-1.8-0.6-2.6c-2.9-11.5-5.4-23.2-8.1-34.8
	c-5.8-25.3-11.1-50.8-14.8-76.5c-1.9-13.2-3.7-26.5-6.2-39.7c-2.4-12.6-5.2-25-7.7-37.6c-5.3-27-10.8-54.1-16.5-81
	c-2.6-12.4-5.5-24.8-8.3-37.1c-3-13.1-5.9-26.1-9.1-39.1c-6.4-25.6-14.9-50.6-22.8-75.7c-1.8-5.6-3.6-11.2-5.5-16.8
	c-0.9-2.7-1.9-5.4-2.8-8.1c-1.9-5.5-3.8-11-6.8-15.9c-2.1-3.3-4.6-6.5-7.2-9.4c-1.8-2-6.3-5.4-7.4-6.1c-2.3-1.5-6.5-3.5-8.3-3.9
	c-5.9-1.3-12-2.2-17.9-0.1c-3.9,1.4-6.2,2.5-9.3,4.2c-7.7,4.1-14.7,9.2-21.7,14.4c-4.6,3.4-8.8,7.3-13,11
	c-4.3,3.9-8.6,7.7-12.8,11.7c-5.1,4.9-10,9.8-14.9,14.9c-5.3,5.5-10.1,11.6-14.9,17.6c-4.2,5.3-8.3,10.5-12.2,15.9
	c-4.3,5.9-8.5,12-12.6,18.1c-7.1,10.4-13.6,21.1-20.2,31.9c-3.1,5-6.3,9.9-9.1,15.1c-3.8,6.9-7.6,13.7-11.5,20.6
	c-1.3,2.4-2.3,5-3.4,7.4c-1.9,4.1-3.8,8.2-5.7,12.3c-1.6,3.5-3.3,7-4.7,10.5c-1.5,3.8-2.9,7.6-4.4,11.4
	c-4.5,11.8-8.9,23.6-12.5,35.7c-4,13.3-7.5,26.6-10.8,40.1c-0.7,2.9-1.2,6-1.7,9c-0.9,4.7-1.7,9.2-2.4,13.9c-1,7-2.1,13.9-2.7,21
	c-0.5,6.3-1.1,12.5-1.3,18.9c-0.2,6.7-0.6,13.5-0.3,20.2c0.2,6.7,0.1,13.5,0.6,20.2c0.6,7.6,1.1,15.2,1.6,22.8
	c0.3,4.1,1,8.3,1.5,12.4c0.5,4.5,1.1,8.9,1.6,13.4c0.8,6.8,2,13.5,3,20.2c1.9,12.5,4.6,24.9,7.4,37.2c2.9,12.7,6,25.2,8.6,38
	c2.5,12.6,4.8,25.3,7.6,37.9c1.2,5.7,2.5,11.4,4.3,16.9c1.9,5.9,3.9,11.7,5.9,17.5c2.1,5.9,4.3,11.7,6.8,17.4
	c-0.7,0.6-1.3,1.3-2,1.9c-3.7,3.6-7.3,7.3-10.8,11.1c-5.2,5.7-10,11.7-14.8,17.7c-8,10.1-15.9,20.3-23.6,30.6
	c-3.3,4.5-6.5,9-9.7,13.6c-3.9,5.6-8,11.1-11.7,16.8c-4,6.2-8,12.3-11.9,18.5c-1.5,2.4-2.9,4.8-4.3,7.2c-2.4,4.1-4.9,8.2-7.3,12.3
	c-3.1,5.3-5.9,10.9-8.8,16.3c-6.5,12.2-12.3,24.8-17.6,37.6c-6.8,16.3-11.4,33.4-15.5,50.5c-3.2,13.2-6.3,26.5-9,39.9
	c-2.6,13-4.9,26-7.2,39c-1.6,8.7-2.5,17.6-3.6,26.3c-0.7,5.6-1.5,11.1-1.9,16.8c-0.6,8.4-1.2,16.8-1.8,25.1
	c-0.4,6.2-0.2,12.5-0.3,18.7c0,5.5-0.2,11-0.1,16.5c0.2,8.9,0.4,17.7,0.5,26.6c0.1,6.1,0.5,12.1,0.8,18.2c0.3,6,0.5,12,1,18
	c0.6,7.2,1.1,14.4,1.7,21.6c0.4,4.6,1.1,9.3,1.7,13.9c0.5,4.3,1.1,8.6,1.6,13c0.4,2.8,1.1,5.6,1.6,8.4c0.5,2.8,1,5.7,1.7,8.5
	c1.6,6.7,3,13.4,4.8,20c3.5,13,7,26,10.9,38.8c3.7,12.4,7.4,24.8,11.2,37.1c3.7,12.2,7.6,24.3,11.6,36.4c2,6.2,4.5,12.3,6.8,18.4
	c2,5.5,4.3,11,6.5,16.5c2.9,7.3,5.8,14.5,9,21.7c2.7,6.1,5.5,12.3,8.2,18.4c5.3,11.6,10.1,23.3,15,35.1c4.6,11.1,9.6,22.1,14.7,33
	c5.2,11.3,10.5,22.6,16.4,33.6c2.3,4.3,4.7,8.6,7.3,12.8c1.1,1.9,2.3,3.7,3.4,5.5c-0.3,2.2-0.6,4.5-0.8,6.8
	c-0.3,2.7-0.1,5.5-0.1,8.2c0,3.1,0.1,6.1,0.1,9.2c0.3,12.1,0.8,24.2,1.7,36.3c0.5,6.4,1,12.8,1.7,19.3c0.4,3.2,0.7,6.5,1.1,9.7
	c0.7,5.9,1.6,11.7,2.5,17.6c1.1,6.8,2.5,13.6,4,20.4c1.3,5.8,2.7,11.7,4.5,17.4c4.4,13.9,9.3,27.7,15.6,40.9
	c2.7,5.6,5.3,11.4,8.3,16.9c3.5,6.5,7.2,13,11,19.3c14.1,23.6,28.1,47.3,45.2,68.8c6.2,7.8,12.4,15.6,19.3,22.8
	c3.6,3.7,7.7,7,11.6,10.4c2.7,2.3,5.5,4.5,8.2,6.8c11.4,9.2,23,18.2,34.8,26.8c4.5,3.3,9.1,6.5,13.8,9.4c5.1,3.2,10.3,6.2,15.6,9.2
	c4.1,2.4,8.3,4.6,12.4,6.8c0.1,0.1,0.2,0.1,0.3,0.2c0,0.5,0,1,0,1.4c0,5.8,0.1,11.6,0.2,17.5c0.2,12.3,0.5,24.6,1.1,36.9
	c0.3,6.9,0.6,13.7,0.9,20.6c0.3,6.5,0,13,0,19.5c0,12.8,0,25.6,0,38.3c0,26.5,0.2,52.9-1.3,79.3c-0.8,13.5-2,27-3.1,40.5
	c-1.2,13.7-2.3,27.3-3.3,41c-0.8,10.7-1.7,21.3-2.8,31.9c-1.2,11.1-2.7,22.2-3.6,33.4c-2,22.2-3.7,44.4-5.1,66.6
	c-1.4,22.8-2.9,45.6-4.3,68.4c-0.6,10.8-1.3,21.6-1.8,32.4c-0.5,12.6-0.4,25.2-0.4,37.8c0,7.4,2.6,14.4,7.8,19.8
	c5.1,5.3,12.1,8.3,19.5,8.5c14.9,0.3,28.3-12.1,28.2-27.3c0-7-0.1-13.9-0.1-20.9c0-6.8,0.3-13.6,0.6-20.4
	c0.7-14.2,1.6-28.4,2.5-42.6c0.7-12.4,1.5-24.8,2.3-37.3c0.9-13.1,1.6-26.1,2.6-39.2c1-13.2,2.1-26.4,3.1-39.5
	c1-12.2,2.6-24.3,3.9-36.5c2.8-26.5,4.5-53.2,6.8-79.8c1.2-13.8,2.3-27.7,3.1-41.5c0.7-12.8,0.9-25.7,1-38.5c0.2-26.8,0-53.5,0-80.3
	c0-5.4,0-10.8-0.2-16.2c-0.3-6.5-0.6-13-0.8-19.6c-0.4-12.6-0.8-25.1-1-37.7c-0.1-5.6-0.1-11.2-0.2-16.7c0-2.6,0-5.3,0-7.9
	c0-1.2,0-2.3,0-3.5c-0.1-6.2-1.3-11-4-16.5c-3.6-7.4-10.5-12.6-17.4-16.5c-3.4-2-6.9-3.8-10.5-5.6c-4.8-2.4-9.4-5.3-14-8
	c-6.2-3.6-12.2-7.5-18.1-11.5c-10.4-7.1-20.4-15-30.4-22.8c-6.1-5-12.2-10.1-17.9-15.6c-5-4.8-9.4-10.4-13.8-15.9
	c-2.2-2.8-4.5-5.6-6.7-8.4c-2.2-3-4.4-6.1-6.5-9.1c-1.6-2.2-3-4.7-4.5-7c-1.5-2.3-3-4.7-4.5-7c-6-9.3-11.7-18.8-17.4-28.3
	c-2.6-4.3-5.1-8.5-7.6-12.8c-2.6-4.4-4.9-9-7.3-13.4c-2.5-4.6-4.6-9.6-6.9-14.3c-1.5-3.2-2.9-6.4-4.3-9.7c-1.6-4.5-3.2-8.9-4.6-13.4
	c-1.9-5.9-3.4-11.8-5-17.8c-1.4-5.4-2.4-11-3.6-16.5c-0.6-2.6-0.9-5.2-1.3-7.8c-0.5-3.2-1.1-6.5-1.6-9.7c-0.6-5.2-1.1-10.4-1.5-15.6
	c-0.6-7.6-1.1-15.1-1.4-22.7c-0.4-7.4-0.7-14.8-0.8-22.2c-0.1-5-0.2-10,0.1-14.9c0.2-0.9,0.4-1.7,0.6-2.6c1.3-6.3,1.6-10.7,0.3-17
	c-0.8-3.7-2.5-7.2-4.1-10.5c-1.3-2.6-2.9-5-4.5-7.5c-1.8-2.9-3.5-5.8-5.2-8.7c-7.9-13.6-14.4-27.9-21-42.1
	c-6.8-14.6-13.2-29.5-19.4-44.4c-6.7-15.9-13.9-31.6-20.9-47.4c-5.6-14-11.1-28.1-15.8-42.4c-2.9-8.7-5.7-17.5-8.4-26.3
	c-3-9.9-5.9-19.8-8.9-29.6c-5.3-17.8-10.4-35.6-15.2-53.5c-2.3-8.6-4.1-17.3-5.7-26c-0.8-4.2-1.6-8.3-2.1-12.6
	c-0.4-3.1-0.8-6.3-1.2-9.4c-0.6-7.3-1.2-14.7-1.8-22c-0.6-7-0.7-14-1-21c-0.3-6.7-0.5-13.3-0.7-20c-0.2-7.7-0.5-15.4-0.4-23
	c0.1-9.3,0.1-18.6,0.2-28c0.1-6.8,0.8-13.7,1.3-20.5c0.4-6.3,0.8-12.6,1.6-18.9c0.9-7.1,1.9-14.2,2.8-21.2
	c3.4-19.1,6.9-38.2,11.2-57.1c2.2-9.8,4.6-19.5,7-29.3c1.3-5.1,2.9-10.1,4.3-15.2c3-10.3,6.8-20.4,11-30.3c1.9-4.3,3.9-8.5,6.1-12.7
	c1.8-3.4,3.7-6.8,5.5-10.2c2.7-5,5.3-10,8.1-14.8c3.4-5.7,6.6-11.7,10.2-17.3c4.1-6.4,8.3-12.9,12.4-19.3c3.6-5.6,7.7-11,11.6-16.5
	c3.1-4.4,6.2-8.9,9.5-13.2c6.6-8.8,13.3-17.6,20.1-26.2c5.6-6.7,11.3-13.3,17.5-19.4c4.2-4.2,8.4-8.4,12.8-12.4
	c0.7-0.7,1.4-1.3,2.2-1.9c2.7-2.2,4.9-5,6.7-7.9c4.9-8.2,5.6-18.7,2.3-27.5c-2.7-7.2-6.3-13.9-9.5-20.9c-2.2-5.9-4.3-11.9-6.3-17.9
	c-2.6-7.8-4.5-15.6-6.2-23.6c-3.5-16.1-6.2-32.3-9.8-48.3c-3.5-15.6-7.5-31.1-10.4-46.8c-1.7-9.3-3.3-18.7-4.8-28
	c-1-6.2-1.7-12.4-2.4-18.6c-0.3-4.3-0.6-8.5-0.9-12.8c-0.3-3.6-0.7-7.2-0.8-10.8c-0.2-5.1-0.3-10.2-0.5-15.3
	c-0.1-3.2-0.3-6.5-0.2-9.8c0.3-8.9,0.3-17.8,1.1-26.6c0.4-4.2,0.5-8.5,1.1-12.7c0.5-3.2,0.9-6.4,1.4-9.6c0.8-4.3,1.7-8.6,2.5-12.9
	c0.9-4.6,2.2-9.1,3.3-13.6c2.1-8.5,4.6-16.9,7.1-25.3c2.6-8.7,5.6-17.2,8.5-25.8c1.1-3.3,2.5-6.5,3.8-9.8c1.6-4,3.1-8.1,4.7-12.1
	c2-4.4,4-8.7,6.1-13.1c0.9-1.9,1.6-3.9,2.7-5.7c1.7-3,3.3-6,5-9c2.7-4.8,5.2-9.7,8.1-14.4c4.1-6.7,8.2-13.3,12.3-20
	c6.2-10,12.6-19.9,19.2-29.6c3.7-5.4,7.5-10.8,11.4-16.1c2.1-2.9,4.3-5.7,6.6-8.6c3.9-4.5,7.8-9,11.9-13.3
	c4.2-4.4,8.5-8.6,12.9-12.7c5.5-5,10.9-10.2,16.6-15.1c1.7,5.1,3.3,10.3,4.9,15.4c4.1,12.9,8.3,25.8,12.2,38.8
	c3.8,12.6,7.3,25.4,10.5,38.2c2.9,11.5,5.3,23,7.9,34.5c5.9,25.9,11.5,51.9,16.7,78c2.7,13.3,5.2,26.7,8,40.1
	c2.8,13.3,5.7,26.5,8,39.8c3.2,18.9,5.5,37.9,9,56.7c2,10.7,4,21.3,6.2,31.9c1.9,9.2,4.1,18.4,6.2,27.6c1.9,8.2,3.8,16.5,5.7,24.7
	c0.8,3.7,1.8,7.3,2.6,10.9c0.7,3.2,1.3,6.5,2.1,9.7c0.6,2.4,1.1,4.7,1.5,7.1c1,4.8,4.2,10.8,7.7,14.3c4,3.9,9,7.4,14.6,8.6
	c2.8,0.7,5.7,1.1,8.6,1.2c3-0.1,5.9-0.5,8.9-0.9c1.4-0.2,2.9-0.4,4.3-0.6c3.2-0.6,6.4-1.3,9.6-1.8c5.2-0.5,10.4-0.7,15.6-1.1
	c4-0.3,8.1-0.9,12.1-1.4c2.7-0.3,5.4-0.6,8.2-0.9c7.7-0.8,15.4-1.6,23.1-2.1c7.7-0.5,15.3-1,23-1.3c14.7-0.6,29.5-1.4,44.2-0.9
	c7.2,0.2,14.3,0.6,21.4,1.4c7.2,0.8,14.4,1.7,21.6,2.6c3,0.5,5.9,1,8.9,1.5c7.2,1.2,14.3,2.8,21.3,4.9c4.9,1.4,9.6,3.3,14.2,5.3
	c10.6,5.1,21.1,10.3,31.5,15.7c10.7,5.6,21.3,11.2,31.9,16.9c4.2,2.2,8.4,4.4,12.6,6.5c3.7,1.9,7.6,3.5,11.4,5.2
	c2.5,0.4,4.9,0.7,7.4,1.1c3.2,0.4,6.3,0.2,9.5-0.7c4.1-0.6,8.3-2.2,12-4.1c5.6-2.8,11-6,16.4-9.3c6.5-4,13.2-7.6,20.2-10.7
	c6.9-2.6,13.8-5.1,20.8-7.3c4.9-1.5,9.8-3.1,14.8-4.6c4.8-1.5,9.8-2.5,14.7-3.6c7.8-1.8,15.8-2.8,23.7-3.8c-1.6,0.2-3.3,0.4-4.9,0.6
	c4.4-0.5,8.9-1.1,13.3-1.5c6.2-0.5,12.4-1,18.6-1.3c13.1-0.8,26.3-1.4,39.5-1.8c11.7-0.4,23.4-0.4,35.2-0.3c5.5,0.1,11,0.6,16.5,1
	c4.5,0.3,9,0.7,13.5,1.2c4.3,0.9,8.5,1.9,12.8,3.1c5.1,1.4,10,3.3,15,5c5.3,1.8,11,3,16.5,3.3c5.9,0.3,10.1-1.9,15.3-4
	c1.9-1.4,3.8-2.8,5.7-4.2c1.9-2.3,3.8-4.7,5.6-7c2.3-3.8,3.8-8.7,4.9-13c0.7-3.8,1.3-7.6,1.8-11.5c0.1-1.2,0.3-2.4,0.4-3.6
	c2.9-25.3,4.3-50.7,6-76.1c0.8-12.7,1.6-25.4,2.5-38.1c0.8-12,1.9-24.1,2.6-36.1c0.7-12.6,0.9-25.2,1.2-37.8
	c0.1-5.7,0.6-11.4,0.8-17.1c0.3-6.3,0.5-12.6,0.7-19c0.2-6.2,0.4-12.4,0.5-18.7c0.2-6.3,0.6-12.6,1-18.9c0.7-12.2,1.9-24.5,3.2-36.7
	c2.9-25.7,6.1-51.4,8.6-77.1c1.2-12.4,1.8-24.9,2.2-37.4c0.3-12.2,0.4-24.3,1.1-36.4c0.5-7.9,0.8-15.9,1.1-23.9
	c1.2,0.7,2.4,1.4,3.6,2.1c9.1,5.5,18.1,11.3,26.6,17.8c9.4,8,18.2,16.5,26.7,25.4c7.5,7.8,14.9,15.7,22.1,23.8
	c13.5,15.1,26.2,31,38.8,46.8c3.8,5.3,7.6,10.6,11.4,15.9c2.5,3.5,4.6,7.2,6.9,10.8c2.3,3.6,4.6,7.2,6.9,10.8c0.7,1.1,1.3,2.4,2,3.6
	c1.4,2.7,2.9,5.3,4.3,7.9c2.1,3.9,4.2,7.7,6.3,11.6c2,3.7,3.7,7.7,5.5,11.5c1.8,3.8,3.6,7.6,5.5,11.4c1.4,3.5,2.8,7.1,4.2,10.6
	c1.8,4.5,3.4,9.1,5.1,13.7c3.4,9.5,6.3,19.2,8.9,29c2.8,10.4,5.4,20.8,8,31.2c0.5,2.2,0.9,4.4,1.3,6.7c0.4,2.2,0.9,4.3,1.2,6.5
	c0.4,3.6,0.9,7.1,1.3,10.7c0.3,5.1,0.6,10.2,0.9,15.4c0.3,4.5,0.2,9,0.2,13.5c-0.1,4.9,0.1,10-0.2,14.9c-0.5,6.9-1,13.7-1.5,20.6
	c-1.4,18.7-3.5,37.3-6,55.9c-1.4,8.5-3.2,16.9-5.1,25.2c-2.5,10.8-5.8,21.4-9.3,31.9c-3.2,9.6-6.9,19-10.6,28.4
	c-2.9,7.5-5.3,15.2-8.2,22.7c-0.9,1.9-1.9,3.8-3.1,5.6c-1.8,2.8-3.8,5.5-5.6,8.3c-1.7,2.5-3.4,4.9-5.1,7.4
	c-5.1,7.7-7.8,17.7-5.3,26.7c0.7,2.6,1.7,5.1,2.9,7.6c1.2,2.8,3.6,5.3,5.3,7.6c0.9,1.2,1.8,2.2,2.8,3.3c3.5,3.7,6.8,7.5,10.1,11.3
	c6.6,7.4,13.1,14.8,19.2,22.6c3.4,4.5,6.7,9.1,9.5,14c4.5,7.8,8.8,15.7,13.1,23.7c7.7,14.3,15.9,28.3,23.7,42.5
	c4.1,7.5,8.2,15.1,12.3,22.6c1.3,2.3,2.5,4.7,3.7,7.1c1.9,3.7,3.9,7.3,5.6,11.1c3.3,7.2,6.7,14.5,10,21.8c2.9,6.5,5.7,13,8.4,19.5
	c1.4,3.7,2.8,7.5,4.3,11.2c1.4,3.6,2.9,7.3,3.9,11c2.5,8.9,5.4,17.7,7.4,26.7c1.4,6.4,2.9,12.9,4.3,19.3c0.8,3.7,1.9,7.3,2.5,11
	c1.5,9.9,3.1,19.7,4.6,29.6c0.9,8.1,1.8,16.3,2.7,24.4c0.4,4,0.6,8.1,1,12.2c0.5,6.1,0.9,12.2,1.4,18.3c0.3,3.5,0.3,7,0.5,10.5
	c0.3,6.5,0.6,12.9,0.8,19.4c0.4,9.9,0.3,19.9,0.4,29.8c0.1,9.2-0.1,18.4-0.2,27.7c-0.1,8.6-0.4,17.2-0.9,25.8
	c-0.5,8.8-1.6,17.6-2.9,26.4c-1.1,8.1-2.3,16.2-3.4,24.2c-2.5,15.2-5,30.4-7.5,45.7c-1.3,8.1-2.8,16.2-4.2,24.3
	c-1.4,8.1-3.3,16.1-5,24.1c-1.7,7.9-3.7,15.8-5.6,23.6c-0.7,2.7-1.4,5.4-2.2,8.1c-1.1,3.9-2.1,7.9-3.3,11.8
	c-1.3,4.1-2.6,8.2-3.8,12.3c-1.1,3.7-2.6,7.3-3.9,10.9c-2.2,6.2-4.9,12.3-7.6,18.3c0.6-1.4,1.2-2.8,1.8-4.2
	c-3.5,7.6-7.1,15.1-11.7,22.1c-4.5,6.8-9.1,13.6-13.7,20.4c-2.4,3.5-4.8,6.9-7,10.4c-5.9,9.4-7.8,21.5-4.5,32.1
	c2.4,7.7,6.6,14.4,10,21.6c3.1,9.2,4.9,18.7,6.2,28.3c1.7,17.2,2.1,34.5,2.6,51.7c0.3,9.1,0,18.2-0.2,27.3c-0.1,4.3-0.8,8.7-1.2,13
	c-0.2,2-0.5,4-0.8,6c-0.8,4.6-1.7,9.1-2.5,13.7c-0.7,3.8-1.8,7.6-2.8,11.4c-2.3,9.4-5,18.7-7.7,28.1c-2.4,8.4-5.6,16.6-8.5,24.8
	c-1.1,3.1-2.4,6.1-3.6,9.2c-1.7,4.2-3.4,8.5-5.1,12.7c-2,4.4-4,8.7-6.1,13.1c-2.4,5.3-5.1,10.3-7.9,15.4
	c-6.3,11.6-12.8,23-19.8,34.2c-12.3,19.7-26.3,38.3-40.5,56.7c-6.6,8.1-13.2,16.1-19.9,24c-6.6,7.8-13.4,15.5-20.2,23.2
	c-7,8-14.3,15.6-21.7,23.2c-2.7,2.7-5.3,5.4-7.9,8.2c-2.2,2.4-4.3,4.9-6.3,7.5c-5.2,6-10.9,11.6-16.5,17.3c-2.2,2.3-4.5,4.6-6.6,6.9
	c-1.9,2.2-3.6,4.4-5.4,6.6c-1.8,3.1-3.2,6.5-4.5,9.9c-0.5,1.2-0.8,2.5-1,3.8c-0.6,3.2-1.2,6.9-1.4,10.3c-0.2,4.1,0.4,8.7,1.1,12.6
	c0.5,2.7,0.9,5.4,1.4,8c1.1,5.5,1.8,10.9,2.6,16.4c1.5,10.5,2.6,21,3.8,31.5c-0.2-2.1-0.5-4.2-0.7-6.3c3,26.6,5.9,53.1,8.6,79.7
	c2.5,25.1,3.8,50.2,5.8,75.3c1.2,14.3,2.3,28.6,3.7,42.9c1.4,14,2.7,28.1,4,42.1c1.2,12.4,2.5,24.8,3.7,37.2
	c1.3,13.5,2.4,27,3.5,40.4c1.4,16,3.1,32,4.8,47.9c2,17.5,4.8,35,7.3,52.4c4.6,31.6,9.4,63.1,14.8,94.5c0.9,2.2,1.8,4.4,2.7,6.7
	c2.4,4.2,5.7,7.6,9.8,10.1c6.3,3.9,14.1,5,21.3,3.2c7-1.8,13.1-6.3,16.8-12.5c1-2.2,1.9-4.4,2.9-6.6c1.4-4.9,1.5-9.8,0.3-14.8
	c-3.8-22-7.3-44-10.6-66c-3.6-24.1-7.2-48.2-10.5-72.3c-1.2-10.2-2.3-20.4-3.2-30.6c-1.3-15.4-2.7-30.8-4-46.2
	c-2.2-24.8-4.8-49.5-7.2-74.3c-1.4-14.7-2.8-29.4-4-44.1c-1-12.8-2-25.7-2.9-38.5c-1.8-25.9-4.1-51.8-6.9-77.6
	c-2.1-19-4.2-38-6.4-57c-1.2-9.8-2.3-19.7-3.5-29.5c-0.9-7-2.1-14-3.3-20.9c2.7-2.8,5.4-5.5,8.1-8.2c2.9-3,5.8-6,8.6-9.1
	c2.1-2.3,4-4.6,5.9-7c2-2.2,4-4.4,6.1-6.5c4.1-4.4,8.4-8.6,12.5-12.9c9.1-9.4,17.4-19.4,26-29.2c18.7-21.5,36.8-43.7,53.6-66.8
	c7.2-9.9,14-19.9,20.8-30c3.2-4.8,6.2-9.8,9.1-14.8c3.5-6.1,7-12.1,10.4-18.3c2.9-5.4,6.1-10.8,8.7-16.4c3.2-6.9,6.4-13.8,9.6-20.7
	c3.9-8.3,7.1-17,10.5-25.5c2.5-6.3,4.7-12.7,6.9-19.1c1.1-3.1,2.3-6.2,3.2-9.4c1.7-6.1,3.5-12.2,5.2-18.3c1.1-3.7,1.9-7.5,2.9-11.2
	c1-4.2,2.2-8.4,3-12.7c1.2-6.7,2.5-13.4,3.4-20.1c0.6-4.3,1.4-8.7,1.8-13c0.4-4.7,1.1-9.5,1.2-14.2c0.1-4.5,0.3-9,0.3-13.5
	c-0.1-18.9-0.7-37.7-2.1-56.6c-0.6-7.7-1.4-15.3-2.4-22.9c-0.7-5.3-1.7-10.5-2.8-15.7c-1.6-7.5-4.1-14.6-7-21.6
	c-1.2-2.9-2.5-5.6-3.9-8.3c1.2-1.8,2.5-3.6,3.7-5.4c3.1-4.6,6.2-9.1,9.2-13.7c2.2-3.3,4.5-6.7,6.5-10.1c3.1-5.1,5.5-10.6,8-16
	c3.1-6.7,6.2-13.5,8.9-20.3c2.5-6.2,5.1-12.5,7.1-18.9c3.8-12.4,7.5-24.8,10.5-37.5c1.5-6.1,3.1-12.2,4.3-18.4
	c1.5-7.3,3.3-14.5,4.6-21.9c2.6-14.6,5.1-29.2,7.5-43.9c4.5-27.5,9-55,12.2-82.6c1.4-11.9,1.8-24,1.9-36c0.1-13.9,0.2-27.9,0-41.8
	c-0.1-5.5,0-11-0.3-16.5c-0.4-9-0.8-17.9-1.2-26.9c-0.2-5.5-0.8-10.9-1.2-16.4c-0.5-6.3-0.9-12.6-1.5-18.9
	c-0.9-8.4-1.8-16.8-2.7-25.2c-0.8-7.7-1.9-15.2-3.1-22.8c-0.7-4.6-1.4-9.3-2.2-13.9c-0.3-1.8-0.5-3.7-0.9-5.6
	c-1.8-8.1-3.7-16.3-5.5-24.4c-1.1-4.8-2.2-9.6-3.6-14.3c-1.3-4.4-2.5-8.8-3.8-13.2c-0.7-2.6-1.4-5.1-2.3-7.7
	c-5.3-14.4-10.9-28.5-16.7-42.7c-4-9.7-8.7-19.3-13.1-28.8c-3.8-8.2-8-16.2-12.3-24.1c-5.1-9.3-10.2-18.6-15.2-27.9
	c-5-9.3-10.4-18.4-15.5-27.6c-4.8-8.6-9.4-17.4-14.3-26c-2.1-3.7-4.3-7.3-6.7-10.8c-4.1-5.9-8.3-11.8-12.7-17.5
	c-5.7-7.4-11.8-14.5-18.1-21.5c-0.7-0.8-1.5-1.6-2.2-2.5c0.6-0.9,1.2-1.8,1.8-2.7c6.3-9.6,10-20.6,13.9-31.4
	c8.4-23.3,18.2-46.2,23.8-70.4c1.3-5.8,2.7-11.5,3.8-17.3c1.6-8.6,3-17.2,4.2-25.9c1.7-12.3,3.1-24.7,4.2-37.1
	c0.6-6.2,1.2-12.4,1.7-18.6c0.3-4.6,0.7-9.1,1-13.7c0.2-2.7,0.5-5.3,0.5-8c0.1-7.1,0.2-14.1,0.2-21.2c0-3-0.4-6.2-0.6-9.2
	c-0.2-3.9-0.5-7.7-0.7-11.6c-0.3-5-1.2-10.1-1.8-15.1c-0.4-3.4-0.8-6.7-1.2-10.1c-0.4-3.5-1.3-6.9-1.9-10.3
	c-0.6-3.3-1.5-6.5-2.3-9.8c-3-12.2-6.2-24.4-9.8-36.4c-0.9-3.1-1.9-6.2-2.8-9.3c-1-3.2-2.2-6.3-3.4-9.5c-2.4-6.8-5.1-13.5-7.8-20.2
	c-2.8-6.9-5.4-13.8-8.6-20.4c-3-6.2-5.7-12.6-9-18.7c-3.8-7-7.7-14.1-11.5-21.1c-0.8-1.5-1.8-2.9-2.7-4.4c-2.8-4.4-5.6-8.8-8.4-13.3
	c-3-4.7-6.2-9.2-9.5-13.8c-4.8-6.7-9.6-13.4-14.7-19.9c-8.3-10.4-16.6-20.7-25.2-30.9c-4.1-4.9-8.3-9.8-12.5-14.6
	c-4.9-5.4-9.8-10.8-14.8-16.2c-3.7-4-7.5-8-11.4-11.8c-5.9-5.8-11.7-11.6-17.8-17.1c-15.4-13.8-32.7-25.2-50.6-35.5
	c-2.3-1.3-4.5-2.6-6.8-3.9c-4-2.2-8.3-3.9-12.5-5.7c-2.1-0.9-4.4-1.4-6.7-1.9c-3.7-0.8-8-1.4-11.9-1.5
	C1955.3,660.2,1952.2,660.5,1949.1,660.9L1949.1,660.9L1949.1,660.9z M1595.9,1219.7c-0.5,0.1-0.9,0.1-1.4,0.2
	C1595,1219.8,1595.5,1219.7,1595.9,1219.7L1595.9,1219.7L1595.9,1219.7z"/>
<path class="st0" d="M1762.6,1709.6c-10.8,1.3-21.7,3.1-32.4,5.6c-5.2,1.2-10.4,2.9-15.4,4.7c-4.6,1.6-9.2,3.6-13.7,5.5
	c-2.4,1-4.8,2.2-7.2,3.4c-4.7,2.4-9.3,5.1-13.8,7.8c-4.4,2.6-8.6,5.3-12.8,8.2c-6.4,4.4-12.8,8.8-18.8,13.7c-4,3.3-7.6,7-11.4,10.5
	c-4,3.8-7.8,7.8-11.9,11.5c-3.3,3-6.9,5.8-10.4,8.5c-1.7,1.3-3.5,2.5-5.3,3.7c-2.2,1.4-4.6,2.7-6.9,3.8c-3.7,1.2-7.4,2.1-11.3,2.7
	c-3.3,0.3-6.7,0.4-10.1,0.3c-3.3-0.1-6.6-0.4-9.9-0.8c-3.3-0.6-6.6-1.3-9.8-2.1c-3.2-0.8-6.4-1.5-9.5-2.6c-3.5-2-6.8-4.1-10.2-6.5
	c-4.3-3.1-8.5-6.5-12.6-9.8c-8-6.3-16.1-12.5-24.1-18.7c-9.3-7.7-18.8-15.2-28.7-22.1c-4.3-2.9-8.6-5.9-12.9-8.7
	c-6.4-4.1-13-7.2-20-10.1c-6.1-2.6-12.7-4.3-19.2-5.6c-5.7-1.2-11.3-1.9-17.1-1.8c-3.9,0-7.8,0.6-11.6,0.9c-2.5,0.3-4.9,0.6-7.4,0.9
	c-4.7,1.2-8.8,3.5-12.4,6.9c-5.3,5.1-8.3,12.1-8.5,19.5c-0.1,7.3,2.7,14.5,7.8,19.8c1.8,1.5,3.7,3,5.5,4.4c4.3,2.6,8.9,3.9,13.9,4
	c5.6-0.5,11.1-1.1,16.7-0.8c5.1,1.2,10.1,2.6,15,4.5c6.7,3.5,13,7.8,19.2,12c6.1,4.2,12,8.5,17.8,13c8.9,7.4,18,14.5,27.2,21.5
	c8.2,6.3,16.2,13,24.7,19.1c6,4.3,12.7,7.9,19.6,10.3c4.8,1.7,9.9,3,14.9,4c7.4,1.5,14.8,2.8,22.3,3.6c5.1,0.5,10.2,0.8,15.3,0.5
	c7.8-0.4,15.6-1.3,23.2-2.9c7.3-1.6,14.3-4.6,20.9-7.9c4.7-2.3,8.9-5.5,13.2-8.6c6-4.3,11.9-8.8,17.5-13.6c5-4.4,9.6-9.2,14.5-13.8
	c4-3.8,8.1-7.6,12.3-11.1c6.6-4.5,13.2-9,20.2-13.1c3.8-2.2,7.7-4.5,11.6-6.5c2.7-1.3,5.4-2.6,8.2-3.8c7.2-2.6,14.6-4.6,22.1-6.1
	c8.4-1.7,16.9-3.1,25.5-4.1c2.2-0.9,4.4-1.8,6.7-2.7c4.2-2.4,7.6-5.7,10.1-9.8c3.9-6.3,5-14.1,3.2-21.3c-1.8-7-6.3-13.1-12.5-16.8
	c-2.2-1-4.4-1.9-6.6-2.9c-2.6-0.7-5.2-1.1-7.8-1.1C1767.2,1708.7,1764.9,1709,1762.6,1709.6L1762.6,1709.6L1762.6,1709.6z"/>
<path class="st0" d="M1587.5,1815.1c-1.5,1.8-3,3.7-4.4,5.5c-2.6,4.3-3.9,8.9-4,13.9c-1,11.4-1.9,22.8-2.2,34.3
	c-0.3,11.8-0.5,23.5-0.7,35.3c-0.2,10.5-0.3,21,0,31.5c0.2,10.8,1,21.6,1.6,32.4c1.4,22.3,1.9,44.6,2.1,67
	c0.1,11.7,0.3,23.4,0.4,35.2c0.1,10.2,0.6,20.4,0.9,30.6c0.6,21.7,1.1,43.5,1.1,65.2c0,11.8,0,23.6,0,35.4c0,10.6-0.1,21.3,0.3,31.9
	c0.2,7,0.6,14.2,1.9,21.1c1.3,6.9,6.6,13.3,12.5,16.8c6.3,3.9,14.1,5,21.3,3.2c7-1.8,13.1-6.3,16.8-12.5c1-2.2,1.9-4.4,2.9-6.6
	c1.3-4.7,1.5-9.4,0.4-14.1c-0.6-9.2-0.7-18.4-0.7-27.6c0-11.3,0-22.6,0-34c0-21.8-0.2-43.7-0.8-65.5c-0.6-21.8-1.3-43.6-1.5-65.3
	c-0.1-11.3-0.2-22.5-0.4-33.8c-0.2-10.9-0.3-21.9-1-32.8c-0.7-11.4-1.5-22.9-2.1-34.3c-0.5-10.3-0.5-20.6-0.4-30.9
	c0.1-10.8,0.2-21.5,0.4-32.3c0.3-11.2,0.5-22.4,1.3-33.6c0.4-5.1,0.8-10.3,1.3-15.4c0.6-7.1-3-14.8-7.8-19.8
	c-5.1-5.3-12.1-8.3-19.5-8.5c-0.2,0-0.3,0-0.5,0C1599.6,1807.3,1592.7,1810.1,1587.5,1815.1L1587.5,1815.1L1587.5,1815.1z"/>
<path class="st0" d="M1771.6,2188.8c-1,0.5-2,1-3,1.5c-9.8,3.9-19.9,7-29.9,10.3c-10.3,3.3-20.7,6.3-31.1,9.4
	c-7.3,2.2-14.7,4.3-22.1,6.1c-5.8,1.4-11.7,2.5-17.5,3.4c-9.7,0.8-19.3,1.5-29,1.9c-10.6,0.4-21.2,0.4-31.8,0.2
	c-10.9-0.2-21.8-0.5-32.6-1.5c-11-1-21.9-2.1-32.9-2.7c-4.8-0.3-9.5-0.6-14.3-0.7c-4.8-0.1-9.6-0.2-14.3-0.4c-5-0.2-10-0.4-15-0.8
	c-4.1-0.3-8.1-0.7-12.2-1.2c-6.4-1.1-12.8-2.5-19.2-4.1c-8.4-2.2-16.4-5.2-24.4-8.5c-2.5-0.4-4.9-0.7-7.4-1.1
	c-5-0.1-9.7,1.1-14.1,3.5c-6.3,3.5-11,9.5-13,16.4c-2.1,7.1-1.2,15,2.4,21.4c1.4,1.9,2.8,3.8,4.2,5.7c3.4,3.5,7.4,5.9,12.1,7.3
	c10.6,4.4,21.4,8.2,32.6,10.5c7.7,1.6,15.6,3.2,23.5,4.1c6,0.7,11.9,1.3,17.9,1.7c10.2,0.8,20.4,0.6,30.6,1.2
	c11,0.6,21.9,1.4,32.8,2.3c10.8,1,21.7,2,32.5,2.2c11.7,0.2,23.5,0.2,35.2,0.2c5.4,0,10.8-0.4,16.1-0.8c5-0.3,10-0.6,15.1-1
	c7.6-0.6,15.3-1.2,22.8-2.6c6-1.2,12-2.5,18-3.9c10.7-2.6,21.2-6.1,31.7-9.2c10-3,20-6.2,29.9-9.5c4.5-1.5,9-2.9,13.4-4.6
	c4.5-1.7,9-3.5,13.5-5.4c2.3-0.9,4.6-1.8,6.8-3c13.3-7.3,18-24.7,10.6-37.8c-3.5-6.3-9.5-11-16.4-13c-2.5-0.7-5.2-1.1-7.7-1.1
	C1780.5,2185.3,1775.8,2186.5,1771.6,2188.8L1771.6,2188.8L1771.6,2188.8z M1768.5,2190.3c-1.9,0.8-3.9,1.6-5.8,2.3
	C1764.6,2191.8,1766.6,2191.1,1768.5,2190.3L1768.5,2190.3L1768.5,2190.3z"/>
<path class="st0" d="M1995.1,1602.4c-0.3,0.1-0.6,0.3-0.8,0.4c-1.3,0.3-2.6,0.7-3.9,1.1c-5.5,1.8-11.3,4-16.2,7.2
	c-4.7,3-9.3,6.5-13.1,10.7c0,0,0,0,0,0c-3.1,2.6-6.1,5.4-8.6,8.5c-2.4,2.9-5.2,5.8-7,9.2c-1.9,3.5-3.4,7.3-4.8,11
	c-0.6,1.6-1.1,3.2-1.4,4.9c-0.8,3.9-1.4,7.8-1.8,11.8c-0.3,1.1-0.5,2.3-0.7,3.5c-0.8,4.3-1.8,8.9-1.5,13.3c0.3,4,0.7,8.2,1.6,12.1
	c0.8,3.8,2.8,7.9,4.2,11.2c2.3,5.4,6.2,10.1,9.8,14.6c1.2,1.4,2.4,2.8,3.7,4c0.1,0.2,0.3,0.4,0.4,0.5c0.5,0.7,1.1,1.3,1.7,1.9
	c0.8,0.8,1.6,1.5,2.5,2.2c1.1,1.4,2.3,2.7,3.7,3.9c2.9,2.6,6.1,5.3,9.5,7.3c3.4,2,7.2,3.4,10.9,4.9c1.9,0.7,3.9,1.4,5.9,2
	c8.3,2.4,17.1,3.8,25.6,4.7c2.7,0.3,5.4,0.5,8.1,0.7c5.8,0.5,11.6-0.4,17.4-1.2c1.8-0.3,3.4-0.7,5.1-1.3c3.9-1.5,8-3,11.8-5.1
	c1.6-0.9,3-1.9,4.5-2.9c3.3-2.3,6.6-4.7,9.6-7.4c1.3-1.2,2.5-2.5,3.6-3.9c2.9-3.6,5.6-6.7,7.7-10.7c3.9-7.7,6.5-15.5,8.1-23.9
	c1.5-8,2.9-16,3.4-24.1c0.1-2.6,0-5.1-0.1-7.7c-0.2-3.9-0.8-8.6-1.7-12.6c-0.4-1.7-1-3.4-1.6-5.1c-1.5-3.9-3-8.2-5.1-11.9
	c-0.9-1.6-2-3-3.1-4.5c-2.3-3.2-4.6-6.3-7.1-9.3c-1.2-1.4-2.5-2.6-3.8-3.7c-3-2.6-6.2-5.1-9.4-7.4c-1.1-0.8-2.3-1.5-3.5-2.3
	c-2.2-1.5-4.6-2.8-7-4c-4.4-2.3-9.1-4.5-13.8-6.2c-1.3-0.5-2.5-0.8-3.8-1.2c-0.6-0.2-1.1-0.2-1.7-0.3c-3.8-0.8-8-1.6-12-1.6
	c-0.1,0-0.2,0-0.3,0C2011.2,1595.5,2003,1598.6,1995.1,1602.4L1995.1,1602.4L1995.1,1602.4z"/>
<path class="st0" d="M1113.1,1624.9c-3.8,0.5-7.5,1.5-11,2.9c-5.4,2.1-10.9,4.1-15.7,7.3c-4.9,3.3-9.6,6.9-13.7,11.3
	c-3.9,4.1-7.4,8.6-10.6,13.3c-3.4,5-5.7,10.7-8.1,16.2c-3.9,8.9-5.6,18.6-6.3,28.2c-0.4,5.9,0.4,11.8,1.2,17.6
	c0.8,6.1,3.1,11.4,5.4,17c1.3,3.2,3,6.2,5,9.1c3.3,4.8,6.8,9.7,11.3,13.6c0.8,0.7,1.5,1.3,2.3,2c2.2,3.1,4.5,6.4,7.2,9.2
	c2.7,2.8,6.1,5.2,9.1,7.6c1.3,1,2.7,1.9,4.1,2.6c3.7,1.9,7.8,3.7,11.8,4.9c1.7,0.5,3.4,0.9,5.1,1.2c4.2,0.8,8.4,1.5,12.7,1.9
	c1.8,0.1,3.7,0,5.5-0.1c4.4-0.4,9-0.8,13.3-1.9c0.6-0.1,1.1-0.3,1.7-0.5c4-0.1,8-0.6,12-1.1c4.8-0.5,9.9-0.8,14.4-2.4
	c3.7-1.3,7.4-2.8,10.9-4.6c3.7-1.9,7.1-4.7,10.2-7.4c0.6-0.5,1.1-1.1,1.6-1.7c2-2.3,3.9-4.8,5.8-7.3c1-1.3,1.8-2.8,2.6-4.2
	c1.8-3.4,3.3-6.9,4.7-10.4c2.2-3.7,3.9-7.6,5.7-11.8c2.3-5.4,2.9-11.6,3.8-17.4c0.6-3.8,0.7-7.6,0.4-11.5
	c-0.5-5.9-1.2-11.9-2.7-17.7c-1.6-5.9-4-11.6-6.5-17.1c-1.5-3.2-3.3-6.2-5.3-9c-3.5-4.9-7-9.8-11.4-13.9c-4.2-3.9-8.9-7.3-13.5-10.8
	c-3.2-2.4-6.4-4.6-9.9-6.4c-5.2-2.7-10.7-5.1-16.4-6.6c-6-1.7-12.4-2.6-18.6-3.2c-1.4-0.1-2.7-0.2-4.1-0.2
	C1122.3,1623.7,1117.7,1624.3,1113.1,1624.9L1113.1,1624.9L1113.1,1624.9z"/>
<path class="st0" d="M2042.7,1652.4c-0.1,3.1,2.5,5.9,5.6,5.9c3.1,0,5.8-2.5,5.9-5.6c0.1-3.1-2.5-5.9-5.6-5.9
	C2045.4,1646.7,2042.7,1649.2,2042.7,1652.4L2042.7,1652.4L2042.7,1652.4z"/>
<path class="st0" d="M2046.7,1663.9c-0.1,6.5,5.2,12.2,11.8,12.2s12.1-5.2,12.2-11.8c0.1-6.5-5.2-12.2-11.8-12.2
	S2046.8,1657.3,2046.7,1663.9L2046.7,1663.9L2046.7,1663.9z"/>
<path class="st0" d="M2105.5,1606.8c-0.8,0.6-1.6,1.2-2.5,1.8c-1.5,1.5-2.6,3.2-3.2,5.2c-1.4,3.5-2.9,7.1-4.3,10.6
	c-1.4,2.9-2.9,5.8-4.7,8.4c-0.6,0.7-1.2,1.3-1.9,1.9c-0.8,0.5-1.5,1-2.4,1.4c-0.1,0-0.2,0.1-0.3,0.1c-1.3,0-2.5-0.1-3.8-0.3
	c-3.3-0.6-6.4-1.3-9.5-2.5c-3-1.5-5.8-3.5-8.6-5.3c-5.5-3.6-13.2-1.4-16.5,4c-1.7,2.7-2.2,6.1-1.4,9.2c0.8,3.1,2.8,5.5,5.4,7.3
	c1.7,1.1,3.3,2.2,5,3.3c2.5,1.7,5.3,2.9,8.1,4.1c5.3,2.2,10.8,3,16.4,3.8c1.9,0.3,3.8,0.4,5.7,0.4c1.8-0.1,3.7-0.3,5.5-0.8
	c1.7-0.4,3.4-1.3,5-1.9c2.6-1.1,5-3.1,7.2-4.8c2.5-1.9,4.3-4.4,6.2-6.8c1.9-2.4,3.2-5.2,4.6-7.9c1.1-2.2,2.1-4.5,3-6.7
	c1.5-3.5,2.9-7.1,4.3-10.7c1.1-2.9,0.4-6.7-1-9.3c-1.5-2.7-4.1-4.8-7.1-5.6c-1.1-0.3-2.2-0.5-3.4-0.5
	C2109.3,1605.2,2107.3,1605.8,2105.5,1606.8L2105.5,1606.8L2105.5,1606.8z"/>
<path class="st0" d="M1028.5,1632.1c-3,0.8-5.6,2.7-7.3,5.4c-1.7,2.8-2.1,6-1.4,9.2c1,4.8,2.8,9.2,4.6,13.8
	c1.7,4.2,3.6,8.3,5.7,12.4c1.4,2.8,3.2,5.2,5.1,7.8c1.9,2.6,4.4,4.9,7,6.7c2.3,1.6,5,2.6,7.6,3.7c2.1,0.9,4.4,1.4,6.7,1.9
	c4.1,0.8,8.2,1.6,12.3,2.4c1.1,0.2,2.1,0.3,3.2,0.5c2.2,0,4.2-0.5,6.1-1.5c2.7-1.5,4.8-4.1,5.6-7.1c0.9-3.1,0.5-6.5-1-9.3
	c-1.4-2.5-4.2-5.1-7.1-5.6c-2.7-0.5-5.4-1-8.1-1.5c-3.6-0.7-7.1-1.3-10.5-2.6c-0.5-0.2-1-0.5-1.5-0.8c-0.8-0.8-1.6-1.6-2.3-2.5
	c-2.3-3.5-4-7.4-5.8-11.2c-0.6-1.3-1.2-2.7-1.8-4.1c-1-2.9-1.9-5.8-2.6-8.8c-1.2-5.4-6.4-9-11.8-9
	C1030.4,1631.8,1029.4,1631.9,1028.5,1632.1L1028.5,1632.1L1028.5,1632.1z"/>
</svg>
